<?xml version="1.0" encoding="utf-8"?>
<!-- Generated by IcoMoon.io -->
<!DOCTYPE svg PUBLIC "-//W3C//DTD SVG 1.1//EN" "http://www.w3.org/Graphics/SVG/1.1/DTD/svg11.dtd">
<svg version="1.1" xmlns="http://www.w3.org/2000/svg" xmlns:xlink="http://www.w3.org/1999/xlink" width="32" height="32" viewBox="0 0 32 32">
<path d="M16 0c8.8 0 16 7.2 16 16s-7.2 16-16 16c-8.8 0-16-7.2-16-16s7.2-16 16-16v0zM19.92 19.12v0c-1.76 2.24-4.96 2.64-7.2 0.96s-2.48-4.88-0.72-7.12c1.84-2.24 5.040-2.64 7.2-0.96 2.24 1.68 2.48 4.88 0.72 7.12zM11.36 29.52c0.96 0.4 3.040 0.8 4.080 0.8l6.96-10.080c2.24-3.36 1.68-7.92-1.44-10.4-2.8-2.24-6.72-2.16-9.52 0l-9.68 7.44c0.24 2.56 0.96 3.84 0.96 3.92l5.52-6c-0.4 2.64 0.56 5.36 2.8 7.040 1.92 1.52 4.24 1.92 6.48 1.44l-6.16 5.84z"></path>
</svg>
