<?xml version="1.0" encoding="utf-8"?>
<!-- Generated by IcoMoon.io -->
<!DOCTYPE svg PUBLIC "-//W3C//DTD SVG 1.1//EN" "http://www.w3.org/Graphics/SVG/1.1/DTD/svg11.dtd">
<svg version="1.1" xmlns="http://www.w3.org/2000/svg" xmlns:xlink="http://www.w3.org/1999/xlink" width="32" height="32" viewBox="0 0 32 32">
<path d="M0 16.189q0-4.4 2.168-8.116t5.884-5.884 8.116-2.168 8.116 2.168 5.884 5.884 2.168 8.116q0 5.284-3.084 9.505t-7.968 5.842q-0.568 0.105-0.832-0.147t-0.263-0.632v-4.442q0-2.042-1.095-2.989 1.2-0.126 2.158-0.379t1.979-0.821 1.705-1.4 1.116-2.21 0.432-3.168q0-2.547-1.663-4.337 0.779-1.916-0.168-4.295-0.59-0.189-1.705 0.232t-1.937 0.926l-0.8 0.505q-1.958-0.547-4.042-0.547t-4.042 0.547q-0.337-0.232-0.895-0.568t-1.758-0.811-1.811-0.284q-0.926 2.379-0.147 4.295-1.663 1.79-1.663 4.337 0 1.79 0.432 3.158t1.105 2.21 1.695 1.411 1.979 0.821 2.158 0.379q-0.842 0.758-1.032 2.168-0.442 0.21-0.947 0.316t-1.2 0.105-1.379-0.453-1.168-1.316q-0.4-0.674-1.021-1.095t-1.042-0.505l-0.421-0.063q-0.442 0-0.611 0.095t-0.105 0.242 0.189 0.295 0.274 0.253l0.147 0.105q0.463 0.21 0.916 0.8t0.663 1.074l0.21 0.484q0.274 0.8 0.926 1.295t1.411 0.632 1.463 0.147 1.168-0.074l0.484-0.084q0 0.8 0.011 1.874t0.011 1.137q0 0.379-0.274 0.632t-0.842 0.147q-4.884-1.621-7.968-5.842t-3.084-9.505z"></path>
</svg>
