<?xml version="1.0" encoding="utf-8"?>
<!-- Generated by IcoMoon.io -->
<!DOCTYPE svg PUBLIC "-//W3C//DTD SVG 1.1//EN" "http://www.w3.org/Graphics/SVG/1.1/DTD/svg11.dtd">
<svg version="1.1" xmlns="http://www.w3.org/2000/svg" xmlns:xlink="http://www.w3.org/1999/xlink" width="37" height="32" viewBox="0 0 37 32">
<path d="M36.394 16.034l-0.063-0.069-0.689 0.778-0.717 0.003-0.005-0.378-1.535-0.854 0.007 0.869c0 0-6.165-0.126-6.701-0.142-0.133-0.005-0.276 0.006-0.572-0.067-1.047-0.248-2.055-4.205-2.055-4.205l-1.775 8.163-2.186-17.237-2.030 19.113-1.997-16.665-1.997 14.337-1.997-9.645c0 0-1.598 5.268-1.807 5.666-0.053 0.099-0.107 0.194-0.166 0.282-0.030 0.044-0.060 0.088-0.092 0.126-0.026 0.031-0.043 0.049-0.064 0.072-0.020 0.021-0.040 0.040-0.060 0.056-0.013 0.011-0.006 0.007-0.028 0.023-0.007 0.006-0.022 0.016-0.033 0.023-0.048 0.033-0.102 0.063-0.16 0.091-0.179 0.088-0.442 0.174-0.76 0.24s-0.689 0.116-1.086 0.148c-0.795 0.065-1.696 0.064-2.534 0.034-1.679-0.061-4.667-0.014-4.666-0.012l4.638 0.563c0.84 0.112 1.749 0.198 2.583 0.201 0.832 0.004 1.594-0.079 2.117-0.305 0.084-0.036 0.168-0.077 0.253-0.128 0.085-0.051 0.175-0.121 0.246-0.188 0.035-0.033 0.073-0.072 0.101-0.102 0.024-0.025 0.044-0.049 0.066-0.075 0.042-0.051 0.081-0.104 0.119-0.158 0.149-0.219 0.27-0.458 0.38-0.704 0.219-0.494 0.733-1.795 0.733-1.795s2.219 11.773 2.219 11.773l1.997-12.479 1.997 15.925 2.141-17.749 1.853 14.026 2.219-10.252c0.001-0.004 0.291 1.139 0.985 1.627 0.063 0.047 0.263 0.156 0.435 0.212 0.089 0.029 0.18 0.053 0.271 0.069 0.117 0.019 0.184 0.020 0.262 0.025 0.149 0.008 0.289 0.011 0.428 0.015 0.553 0.011 6.733-0.033 6.733-0.033l0.008 0.869 1.521-0.883-0.001-0.384 0.718-0.003 0.713 0.828 0.058-0.070-0.689-0.814 0.667-0.758z"></path>
</svg>
