<?xml version="1.0" encoding="utf-8"?>
<!-- Generated by IcoMoon.io -->
<!DOCTYPE svg PUBLIC "-//W3C//DTD SVG 1.1//EN" "http://www.w3.org/Graphics/SVG/1.1/DTD/svg11.dtd">
<svg version="1.1" xmlns="http://www.w3.org/2000/svg" xmlns:xlink="http://www.w3.org/1999/xlink" width="32" height="32" viewBox="0 0 32 32">
<path d="M2.283 0c-1.142-0.024-2.174 0.912-2.267 2.050-0.027 9.009-0.009 18.024-0.017 27.033-0.2 1.322 0.611 2.804 2.050 2.9 9.009 0.027 18.024 0.009 27.033 0.017 1.322 0.2 2.804-0.611 2.9-2.050 0.027-9.009 0.009-18.024 0.017-27.033 0.2-1.322-0.611-2.804-2.050-2.9-9.22-0.027-18.446-0.009-27.667-0.017zM5.067 4h21.867v8h-5.6v-2.667h-2.4v13.067h2.133v0.533l-0.067 4.433-0.017 0.517h-0.517l-9.533 0.117v-5.6h2.133v-13.067h-2.133v2.667h-5.867v-8zM6.133 5.067v5.867h3.733v-2.667h4.267v15.2h-2.133v3.467l7.933-0.117 0.067-3.35h-2.133v-15.2h4.533v2.667h3.467v-5.867h-19.733z"></path>
</svg>
