<?xml version="1.0" encoding="UTF-8" standalone="no"?>
<svg
   xmlns:dc="http://purl.org/dc/elements/1.1/"
   xmlns:cc="http://creativecommons.org/ns#"
   xmlns:rdf="http://www.w3.org/1999/02/22-rdf-syntax-ns#"
   xmlns:svg="http://www.w3.org/2000/svg"
   xmlns="http://www.w3.org/2000/svg"
   xmlns:xlink="http://www.w3.org/1999/xlink"
   xmlns:sodipodi="http://sodipodi.sourceforge.net/DTD/sodipodi-0.dtd"
   xmlns:inkscape="http://www.inkscape.org/namespaces/inkscape"
   height="60"
   width="60"
   id="svg2"
   version="1.1"
   inkscape:version="0.48.4 r9939"
   sodipodi:docname="travis.svg">
  <metadata
     id="metadata31">
    <rdf:RDF>
      <cc:Work
         rdf:about="">
        <dc:format>image/svg+xml</dc:format>
        <dc:type
           rdf:resource="http://purl.org/dc/dcmitype/StillImage" />
      </cc:Work>
    </rdf:RDF>
  </metadata>
  <sodipodi:namedview
     pagecolor="#ffffff"
     bordercolor="#666666"
     borderopacity="1"
     objecttolerance="10"
     gridtolerance="10"
     guidetolerance="10"
     inkscape:pageopacity="0"
     inkscape:pageshadow="2"
     inkscape:window-width="1920"
     inkscape:window-height="1021"
     id="namedview29"
     showgrid="false"
     showborder="false"
     inkscape:showpageshadow="false"
     inkscape:zoom="7.3656956"
     inkscape:cx="25.239267"
     inkscape:cy="27.98887"
     inkscape:window-x="-8"
     inkscape:window-y="-8"
     inkscape:window-maximized="1"
     inkscape:current-layer="g3008"
     fit-margin-top="0"
     fit-margin-left="0"
     fit-margin-right="0"
     fit-margin-bottom="0" />
  <defs
     id="defs4">
    <linearGradient
       id="linearGradient3833"
       y2="57.5"
       gradientUnits="userSpaceOnUse"
       x2="2.5"
       y1="2.5"
       x1="2.5">
      <stop
         stop-color="#d8432f"
         offset="0"
         id="stop7" />
      <stop
         stop-color="#c52127"
         offset="1"
         id="stop9" />
    </linearGradient>
    <linearGradient
       inkscape:collect="always"
       xlink:href="#linearGradient3833"
       id="linearGradient3015"
       gradientUnits="userSpaceOnUse"
       x1="2.5"
       y1="2.5"
       x2="2.5"
       y2="57.5" />
    <linearGradient
       inkscape:collect="always"
       xlink:href="#linearGradient3833"
       id="linearGradient4625"
       gradientUnits="userSpaceOnUse"
       x1="2.5"
       y1="2.5"
       x2="2.5"
       y2="57.5" />
    <linearGradient
       inkscape:collect="always"
       xlink:href="#linearGradient3833"
       id="linearGradient4628"
       gradientUnits="userSpaceOnUse"
       x1="2.5"
       y1="2.5"
       x2="2.5"
       y2="57.5" />
    <linearGradient
       inkscape:collect="always"
       xlink:href="#linearGradient3833"
       id="linearGradient4635"
       gradientUnits="userSpaceOnUse"
       x1="2.5"
       y1="2.5"
       x2="2.5"
       y2="57.5" />
  </defs>
  <g
     id="g11">
    <g
       id="g3008">
      <path
         style="fill:url(#linearGradient4635);fill-rule:evenodd"
         d="M 4.28125 0 C 2.1395996 -0.04545859 0.20485925 1.7091993 0.03125 3.84375 C -0.02019487 20.735997 0.01470059 37.638081 0 54.53125 C -0.37458035 57.010797 1.1457843 59.787946 3.84375 59.96875 C 20.735997 60.020195 37.638081 59.985299 54.53125 60 C 57.010797 60.37458 59.787946 58.854216 59.96875 56.15625 C 60.020195 39.264003 59.985299 22.361919 60 5.46875 C 60.37458 2.9892031 58.854216 0.21205426 56.15625 0.03125 C 38.868023 -0.02019471 21.570399 0.01470047 4.28125 0 z M 9.5 7.5 L 10.5 7.5 L 49.5 7.5 L 50.5 7.5 L 50.5 8.5 L 50.5 21.5 L 50.5 22.5 L 49.5 22.5 L 41 22.5 L 40 22.5 L 40 21.5 L 40 17.5 L 35.5 17.5 L 35.5 42 L 38.5 42 L 39.5 42 L 39.5 43 L 39.375 51.3125 L 39.34375 52.28125 L 38.375 52.28125 L 21.5 52.5 L 20.5 52.5 L 20.5 51.5 L 20.5 43 L 20.5 42 L 21.5 42 L 24.5 42 L 24.5 17.5 L 20.5 17.5 L 20.5 21.5 L 20.5 22.5 L 19.5 22.5 L 10.5 22.5 L 9.5 22.5 L 9.5 21.5 L 9.5 8.5 L 9.5 7.5 z M 11.5 9.5 L 11.5 20.5 L 18.5 20.5 L 18.5 16.5 L 18.5 15.5 L 19.5 15.5 L 25.5 15.5 L 26.5 15.5 L 26.5 16.5 L 26.5 43 L 26.5 44 L 25.5 44 L 22.5 44 L 22.5 50.5 L 37.375 50.28125 L 37.5 44 L 34.5 44 L 33.5 44 L 33.5 43 L 33.5 16.5 L 33.5 15.5 L 34.5 15.5 L 41 15.5 L 42 15.5 L 42 16.5 L 42 20.5 L 48.5 20.5 L 48.5 9.5 L 11.5 9.5 z "
         id="rect13" />
    </g>
  </g>
</svg>
